Coordinates
version=1
nRows=8
nColumns=63
inDegrees=yes

Units are S.I. units (second, meters, Newtons, ...)
If the header above contains a line with 'inDegrees', this indicates whether rotational values are in degrees (yes) or radians (no).

endheader
time	pelvis_tilt	pelvis_list	pelvis_rotation	pelvis_tx	pelvis_ty	pelvis_tz	hip_flexion_r	hip_adduction_r	hip_rotation_r	knee_angle_r	knee_angle_r_beta	ankle_angle_r	subtalar_angle_r	mtp_angle_r	hip_flexion_l	hip_adduction_l	hip_rotation_l	knee_angle_l	knee_angle_l_beta	ankle_angle_l	subtalar_angle_l	mtp_angle_l	L5_S1_Flex_Ext	L5_S1_Lat_Bending	L5_S1_axial_rotation	L4_L5_Flex_Ext	L4_L5_Lat_Bending	L4_L5_axial_rotation	L3_L4_Flex_Ext	L3_L4_Lat_Bending	L3_L4_axial_rotation	L2_L3_Flex_Ext	L2_L3_Lat_Bending	L2_L3_axial_rotation	L1_L2_Flex_Ext	L1_L2_Lat_Bending	L1_L2_axial_rotation	L1_T12_Flex_Ext	L1_T12_Lat_Bending	L1_T12_axial_rotation	Abs_r3	Abs_r2	Abs_r1	Abs_t1	Abs_t2	neck_flexion	neck_bending	neck_rotation	arm_flex_r	arm_add_r	arm_rot_r	elbow_flex_r	pro_sup_r	wrist_flex_r	wrist_dev_r	arm_flex_l	arm_add_l	arm_rot_l	elbow_flex_l	pro_sup_l	wrist_flex_l	wrist_dev_l
      7.58490566	     -3.07862941	     -0.83648220	     86.14134296	      0.37416829	      0.35970714	      0.68315934	     -3.88636407	      1.58904397	      2.28375935	     17.11973991	      0.29879583	     25.31651568	     16.76697643	      0.00000000	     -5.23067511	     -3.17428790	    -15.26734414	     21.68912740	      0.37854668	     17.96437946	    -16.53814833	      0.00000000	     -0.41555051	      0.10414336	      4.39826701	     -0.77171885	      0.13851067	      4.67315870	     -0.68270793	      0.25321417	      4.67315870	     -0.47493268	      0.25321417	      3.84848363	     -0.38588020	      0.21236914	      3.57359194	     -0.23744556	      0.16131807	      3.29870026	     -2.96823574	      1.17809052	     24.46184162	      0.00000000	      0.00000000	     -9.13933404	      0.34020534	      7.83609912	      9.56383822	    -22.86320359	     49.67069545	     89.25354954	     59.67009467	     -0.30135512	     24.04098697	     47.65592665	     -3.89911784	     22.45059686	    149.58081769	     83.85147577	      9.63310220	     16.95322303
      7.60377358	     -2.77588636	     -0.94138238	     86.20920721	      0.37406465	      0.35933333	      0.68352790	     -3.83782544	      1.85861009	      2.09418196	     17.14762591	      0.29928253	     25.89383656	     16.68329551	      0.00000000	     -5.41684352	     -3.08852532	    -14.63494531	     21.28986407	      0.37157823	     17.55301034	    -16.10313893	      0.00000000	     -0.40095908	      0.13186187	      4.47434839	     -0.74462110	      0.17537629	      4.75399517	     -0.65873567	      0.32060896	      4.75399517	     -0.45825613	      0.32060896	      3.91505485	     -0.37233060	      0.26889273	      3.63540807	     -0.22910802	      0.20425404	      3.35576130	     -2.86401059	      1.49164789	     24.88498347	      0.00000000	      0.00000000	     -9.41170826	      0.30907835	      7.93671214	      9.30224069	    -23.27155743	     49.62144418	     89.65073896	     59.32905391	     -0.30371749	     24.02475300	     48.03161803	     -3.84229177	     22.42122922	    149.69256276	     83.79826770	      9.80925511	     16.67426366
      7.62264151	     -2.52479327	     -1.08779237	     86.25999256	      0.37379976	      0.35884303	      0.68346682	     -3.78948901	      2.07323455	      1.95187126	     17.13828437	      0.29911949	     26.40283343	     16.72942199	      0.00000000	     -5.58027515	     -2.95364605	    -13.81473695	     20.67589511	      0.36086245	     18.10884973	    -15.90195565	      0.00000000	     -0.37992828	      0.15442266	      4.56151106	     -0.70556481	      0.20538213	      4.84660550	     -0.62418417	      0.37546325	      4.84660550	     -0.43422003	      0.37546325	      3.99132217	     -0.35280140	      0.31489868	      3.70622773	     -0.21709102	      0.23920069	      3.42113329	     -2.71378970	      1.74685997	     25.36975604	      0.00000000	      0.00000000	     -9.54753401	      0.17664563	      7.99005061	      8.97426743	    -23.71863057	     49.53591510	     90.05705831	     58.77339947	     -0.37874794	     24.06584857	     48.23726925	     -3.64439959	     22.42898661	    149.73792773	     83.78478894	     10.14359592	     16.36969070
      7.64150943	     -2.06766273	     -1.19649912	     86.41073735	      0.37281165	      0.35853607	      0.68314102	     -3.87843692	      2.39801231	      1.32819860	     17.01344355	      0.29694061	     26.41413098	     17.33369884	      0.00000000	     -5.58534312	     -3.09602820	    -12.91140970	     20.37245922	      0.35556649	     18.98370889	    -16.03958436	      0.00000000	     -0.36491247	      0.20929019	      4.65243128	     -0.67767894	      0.27835595	      4.94320823	     -0.59951469	      0.50886817	      4.94320823	     -0.41705846	      0.50886817	      4.07087737	     -0.33885772	      0.42678455	      3.78010041	     -0.20851098	      0.32419050	      3.48932346	     -2.60653326	      2.36753248	     25.87542705	      0.00000000	      0.00000000	     -9.50230895	     -0.62282061	      7.25057759	      8.48353191	    -24.43341296	     49.36433152	     90.74424907	     55.80388326	     -1.75391528	     24.75067693	     47.94981443	     -2.82746949	     21.87434831	    149.74524604	     84.31781737	     12.18595148	     16.52327272
      7.66037736	     -2.04850176	     -1.41512220	     86.26846210	      0.37310228	      0.35785298	      0.68268645	     -3.84832171	      2.33442257	      1.04977235	     16.89318244	      0.29484165	     26.27755993	     17.21067726	      0.00000000	     -5.52912255	     -2.86465842	    -12.42409024	     19.98349264	      0.34877774	     19.69283553	    -15.99445097	      0.00000000	     -0.35114165	      0.19480170	      4.74253110	     -0.65210516	      0.25908627	      5.03893929	     -0.57689062	      0.47364087	      5.03893929	     -0.40131979	      0.47364087	      4.14971471	     -0.32607014	      0.39723964	      3.85330652	     -0.20064234	      0.30174784	      3.55689832	     -2.50816971	      2.20363585	     26.37653521	      0.00000000	      0.00000000	     -9.48905412	     -0.66896520	      7.14496607	      8.64812092	    -24.79517688	     49.68961962	     90.83733460	     55.91075292	     -1.77237891	     24.84844927	     47.99549469	     -2.69161143	     21.85153222	    149.75142975	     84.36541589	     12.30582791	     16.57305644
      7.67924528	     -1.88592869	     -1.53669992	     86.24085552	      0.37260593	      0.35743740	      0.68231528	     -3.93556683	      2.30096456	      0.33783579	     16.78818668	      0.29300913	     25.73573116	     17.44184243	      0.00000000	     -5.56360011	     -2.78301703	    -11.97141576	     19.63679206	      0.34272668	     19.87975622	    -16.02645021	      0.00000000	     -0.35348718	      0.20080265	      4.79638620	     -0.65646105	      0.26706753	      5.09616034	     -0.58074409	      0.48823157	      5.09616034	     -0.40400050	      0.48823157	      4.19683792	     -0.32824820	      0.40947677	      3.89706379	     -0.20198258	      0.31104331	      3.59728965	     -2.52492360	      2.27151976	     26.67606112	      0.00000000	      0.00000000	     -9.49583727	     -1.23067309	      6.26293047	      9.18079871	    -25.46256780	     50.68990022	     91.25133208	     58.93235473	     -3.32780905	     24.81760900	     47.82749462	     -2.05598365	     21.36557299	    149.75985517	     85.14347120	     13.72064827	     17.79053617
      7.69811321	     -1.79801103	     -1.73700495	     86.12561365	      0.37231710	      0.35709282	      0.68192852	     -3.93200779	      2.19682740	     -0.43961092	     16.65666951	      0.29071373	     24.91598545	     17.45675019	      0.00000000	     -5.56100783	     -2.68306000	    -11.84746483	     19.28826091	      0.33664366	     19.53531963	    -15.98152883	      0.00000000	     -0.34382364	      0.19533664	      4.82907565	     -0.63851489	      0.25979773	      5.13089288	     -0.56486786	      0.47494150	      5.13089288	     -0.39295604	      0.47494150	      4.22544120	     -0.31927464	      0.39833047	      3.92362397	     -0.19646083	      0.30257645	      3.62180674	     -2.45589791	      2.20968709	     26.85787006	      0.00000000	      0.00000000	     -9.77998245	     -1.32035120	      5.89813416	      9.55671554	    -25.81100984	     51.26109553	     91.33748651	     62.11837701	     -3.93504723	     25.22298030	     47.55846221	     -1.74027780	     21.04012162	    149.76199377	     85.88327340	     14.38444309	     18.71121880
      7.71698113	     -1.68854421	     -2.00667256	     86.11760441	      0.37187492	      0.35682232	      0.68171745	     -3.76880795	      2.14081536	     -1.36053847	     16.62678706	      0.29019218	     23.97980558	     17.43707274	      0.00000000	     -5.49061361	     -2.68882778	    -11.91158789	     18.94227000	      0.33060498	     18.74858404	    -15.77796529	      0.00000000	     -0.32470270	      0.19349367	      4.83544127	     -0.60300538	      0.25734658	      5.13765635	     -0.53345406	      0.47046052	      5.13765635	     -0.37110271	      0.47046052	      4.23101111	     -0.30151892	      0.39457230	      3.92879603	     -0.18553512	      0.29972170	      3.62658095	     -2.31931889	      2.18883913	     26.89327369	      0.00000000	      0.00000000	     -9.98171587	     -1.32352495	      5.69669684	      9.27592110	    -25.83543671	     50.82612507	     91.40288243	     66.52294183	     -4.26298378	     25.85571199	     47.18982987	     -1.45795501	     20.53979947	    149.75212823	     86.48458322	     15.28988040	     19.69465239
